<svg width="13" height="7" viewBox="0 0 13 7" fill="none" xmlns="http://www.w3.org/2000/svg">
<path fill-rule="evenodd" clip-rule="evenodd" d="M11.2951 0.24059C11.3715 0.164174 11.4623 0.103557 11.5621 0.0622003C11.6619 0.0208439 11.7689 -0.000441965 11.877 -0.000441965C11.9851 -0.000441965 12.0921 0.0208439 12.1919 0.0622003C12.2918 0.103557 12.3825 0.164174 12.4589 0.24059C12.5353 0.317007 12.596 0.407726 12.6373 0.507569C12.6787 0.607412 12.7 0.714423 12.7 0.822493C12.7 0.930562 12.6787 1.03757 12.6373 1.13742C12.596 1.23726 12.5353 1.32798 12.4589 1.4044L7.28097 6.58234C7.12684 6.73642 6.91783 6.82298 6.69989 6.82298C6.48195 6.82298 6.27294 6.73642 6.11881 6.58234L0.940863 1.4044C0.786533 1.24996 0.699874 1.04054 0.699951 0.822202C0.700028 0.603869 0.786835 0.394509 0.941274 0.240179C1.09571 0.0858489 1.30513 -0.000809436 1.52347 -0.000732371C1.7418 -0.000655305 1.95116 0.086151 2.10549 0.24059L6.69989 4.83581L11.2951 0.24059Z" fill="#4F566B"/>
</svg>
