<svg width="10" height="10" viewBox="0 0 10 10" fill="none" xmlns="http://www.w3.org/2000/svg">
<path fill-rule="evenodd" clip-rule="evenodd" d="M6.56248 3.125C7.39128 3.125 8.18613 3.45424 8.77218 4.04029C9.35824 4.62634 9.68748 5.42119 9.68748 6.25C9.68748 7.0788 9.35824 7.87365 8.77218 8.4597C8.18613 9.04575 7.39128 9.375 6.56248 9.375C6.39672 9.375 6.23774 9.30915 6.12053 9.19194C6.00332 9.07473 5.93748 8.91576 5.93748 8.75C5.93748 8.58423 6.00332 8.42526 6.12053 8.30805C6.23774 8.19084 6.39672 8.125 6.56248 8.125C7.05976 8.125 7.53667 7.92745 7.8883 7.57582C8.23993 7.22419 8.43748 6.74728 8.43748 6.25C8.43748 5.75271 8.23993 5.2758 7.8883 4.92417C7.53667 4.57254 7.05976 4.375 6.56248 4.375L2.44623 4.37062L4.03123 5.955C4.14507 6.07287 4.20807 6.23075 4.20665 6.39462C4.20522 6.55849 4.13949 6.71525 4.02361 6.83113C3.90773 6.94701 3.75097 7.01274 3.5871 7.01417C3.42323 7.01559 3.26535 6.95259 3.14748 6.83875L0.4956 4.18749C0.43736 4.12959 0.391141 4.06074 0.359603 3.9849C0.328065 3.90907 0.311829 3.82775 0.311829 3.74562C0.311829 3.66349 0.328065 3.58217 0.359603 3.50634C0.391141 3.4305 0.43736 3.36165 0.4956 3.30374L3.14748 0.65187C3.26535 0.538021 3.42323 0.475025 3.5871 0.476449C3.75097 0.477873 3.90773 0.543603 4.02361 0.659483C4.13949 0.775364 4.20522 0.932121 4.20665 1.09599C4.20807 1.25987 4.14507 1.41774 4.03123 1.53562L2.44623 3.12062L6.56248 3.125Z" fill="#8792A2"/>
</svg>
