<svg width="17" height="17" viewBox="0 0 17 17" fill="none" xmlns="http://www.w3.org/2000/svg">
<path d="M7.02732 0.0715332H0.418627C0.227323 0.0715332 0.0708008 0.228055 0.0708008 0.419359V7.02806C0.0708008 7.21936 0.227323 7.37588 0.418627 7.37588H7.02732C7.21863 7.37588 7.37515 7.21936 7.37515 7.02806V0.419359C7.37515 0.228055 7.21863 0.0715332 7.02732 0.0715332ZM5.89689 5.89762H1.54906V1.54979H5.89689V5.89762ZM15.723 0.0715332H9.11428C8.92297 0.0715332 8.76645 0.228055 8.76645 0.419359V7.02806C8.76645 7.21936 8.92297 7.37588 9.11428 7.37588H15.723C15.9143 7.37588 16.0708 7.21936 16.0708 7.02806V0.419359C16.0708 0.228055 15.9143 0.0715332 15.723 0.0715332ZM14.5925 5.89762H10.2447V1.54979H14.5925V5.89762ZM7.02732 8.76719H0.418627C0.227323 8.76719 0.0708008 8.92371 0.0708008 9.11501V15.7237C0.0708008 15.915 0.227323 16.0715 0.418627 16.0715H7.02732C7.21863 16.0715 7.37515 15.915 7.37515 15.7237V9.11501C7.37515 8.92371 7.21863 8.76719 7.02732 8.76719ZM5.89689 14.5933H1.54906V10.2454H5.89689V14.5933ZM15.723 8.76719H9.11428C8.92297 8.76719 8.76645 8.92371 8.76645 9.11501V15.7237C8.76645 15.915 8.92297 16.0715 9.11428 16.0715H15.723C15.9143 16.0715 16.0708 15.915 16.0708 15.7237V9.11501C16.0708 8.92371 15.9143 8.76719 15.723 8.76719ZM14.5925 14.5933H10.2447V10.2454H14.5925V14.5933Z" fill="white"/>
</svg>
