<svg width="17" height="17" viewBox="0 0 17 17" fill="none" xmlns="http://www.w3.org/2000/svg">
<path d="M16.6623 7.89359L9.84305 0.677028L9.38596 0.193058C9.28182 0.0835142 9.14097 0.0220337 8.99417 0.0220337C8.84737 0.0220337 8.70653 0.0835142 8.60238 0.193058L1.326 7.89359C1.21928 8.00614 1.13494 8.14019 1.07796 8.28782C1.02097 8.43545 0.992498 8.59368 0.994214 8.75315C1.00127 9.4109 1.51837 9.93598 2.13959 9.93598H2.88964V16.022H15.0987V9.93598H15.8646C16.1664 9.93598 16.4506 9.81078 16.6641 9.58468C16.7693 9.47371 16.8526 9.34175 16.9092 9.19645C16.9659 9.05115 16.9947 8.89539 16.9941 8.7382C16.9941 8.42054 16.8759 8.11969 16.6623 7.89359V7.89359ZM9.98247 14.6766H8.00587V10.8647H9.98247V14.6766ZM13.828 8.59058V14.6766H11.112V10.4162C11.112 10.0032 10.7961 9.66877 10.406 9.66877H7.58231C7.19228 9.66877 6.87638 10.0032 6.87638 10.4162V14.6766H4.16031V8.59058H2.46608L8.99594 1.68234L9.40361 2.11399L15.524 8.59058H13.828Z" fill="white"/>
</svg>
