<svg width="10" height="10" viewBox="0 0 10 10" fill="none" xmlns="http://www.w3.org/2000/svg">
<path fill-rule="evenodd" clip-rule="evenodd" d="M5.62497 7.86438L8.49435 4.995C8.55242 4.93689 8.62136 4.89079 8.69725 4.85932C8.77314 4.82786 8.85448 4.81165 8.93663 4.81162C9.01878 4.81159 9.10013 4.82774 9.17604 4.85915C9.25195 4.89056 9.32093 4.93662 9.37904 4.99469C9.43715 5.05276 9.48325 5.1217 9.51471 5.19759C9.54618 5.27348 9.56239 5.35482 9.56242 5.43697C9.56245 5.51912 9.54629 5.60047 9.51488 5.67638C9.48347 5.75229 9.43742 5.82126 9.37935 5.87937L5.44185 9.81687C5.32464 9.93404 5.1657 9.99987 4.99997 9.99987C4.83425 9.99987 4.6753 9.93404 4.5581 9.81687L0.620599 5.87937C0.503324 5.76193 0.437505 5.60271 0.437622 5.43675C0.437739 5.27078 0.503783 5.11165 0.621224 4.99438C0.738665 4.8771 0.897884 4.81128 1.06385 4.8114C1.22982 4.81152 1.38895 4.87756 1.50622 4.995L4.37497 7.86438V0.625C4.37497 0.45924 4.44082 0.300269 4.55803 0.183058C4.67524 0.065848 4.83421 0 4.99997 0C5.16573 0 5.32471 0.065848 5.44192 0.183058C5.55913 0.300269 5.62497 0.45924 5.62497 0.625V7.86438Z" fill="#8792A2"/>
</svg>
