<svg width="10" height="10" viewBox="0 0 10 10" fill="none" xmlns="http://www.w3.org/2000/svg">
<path fill-rule="evenodd" clip-rule="evenodd" d="M5.62501 2.13571V9.37508C5.62501 9.54084 5.55916 9.69981 5.44195 9.81702C5.32474 9.93423 5.16577 10.0001 5 10.0001C4.83424 10.0001 4.67527 9.93423 4.55806 9.81702C4.44085 9.69981 4.375 9.54084 4.375 9.37508V2.13571L1.50563 5.00508C1.38835 5.12244 1.22926 5.1884 1.06335 5.18846C0.89744 5.18852 0.7383 5.12267 0.620942 5.00539C0.503584 4.88812 0.43762 4.72902 0.437561 4.56311C0.437502 4.3972 0.503354 4.23806 0.62063 4.12071L4.55813 0.183205C4.67533 0.0660358 4.83428 0.000213623 5 0.000213623C5.16573 0.000213623 5.32468 0.0660358 5.44188 0.183205L9.37938 4.12071C9.49666 4.23806 9.56251 4.3972 9.56245 4.56311C9.56239 4.72902 9.49643 4.88812 9.37907 5.00539C9.26171 5.12267 9.10257 5.18852 8.93666 5.18846C8.77075 5.1884 8.61166 5.12244 8.49438 5.00508L5.62501 2.13571Z" fill="#8792A2"/>
</svg>
