<svg width="12" height="16" viewBox="0 0 12 16" fill="none" xmlns="http://www.w3.org/2000/svg">
<path d="M10.3274 4.56158C10.3274 1.27847 7.0183 -1.20638 3.73427 0.617625C2.45575 1.32762 1.6741 2.7484 1.6741 4.27224V6.24448H0.823013C0.604736 6.24448 0.3954 6.33587 0.241055 6.49856C0.0867103 6.66124 0 6.88189 0 7.11196V14H12V7.11196C12 6.88189 11.9133 6.66124 11.7589 6.49856C11.6046 6.33587 11.3953 6.24448 11.177 6.24448H10.2996V4.56158H10.3274ZM6.55152 11.0168V12.1121H5.44848V11.0168C4.97493 10.7092 4.7448 10.0265 5.15944 9.35424C5.20046 9.28816 5.25386 9.2316 5.31637 9.18804C6.16245 8.60065 7.05666 9.22556 7.05666 10.0711C7.05632 10.2611 7.00969 10.4479 6.92124 10.6135C6.83279 10.7791 6.70549 10.9179 6.55152 11.0168V11.0168ZM8.41188 6.24448H3.57032V4.27805C3.5692 3.9223 3.65322 3.572 3.81461 3.25956C3.97599 2.94711 4.20952 2.68261 4.49361 2.49051C6.31035 1.27504 8.21634 2.49633 8.41238 4.26273L8.41188 6.24448Z" fill="#C1C9D2"/>
<path d="M0 14H12V14C12 15.1046 11.1046 16 10 16H2C0.895431 16 0 15.1046 0 14V14Z" fill="#C1C9D2"/>
</svg>
