<svg width="12" height="16" viewBox="0 0 12 16" fill="none" xmlns="http://www.w3.org/2000/svg">
<path d="M4.49318 2.49046C6.41119 1.20653 8.43117 2.63917 8.43117 4.5615H10.3284C10.3284 1.27834 7.02001 -1.20651 3.73409 0.617783C2.45508 1.32774 1.67401 2.74842 1.67401 4.27197V6.24447H0.823355C0.715262 6.24443 0.608221 6.26684 0.508345 6.31041C0.408468 6.35398 0.317711 6.41786 0.241255 6.4984C0.1648 6.57893 0.104143 6.67456 0.0627484 6.7798C0.0213538 6.88505 3.1722e-05 6.99786 0 7.1118V14H12V7.1118C12 6.99789 11.9788 6.88509 11.9374 6.77984C11.8961 6.6746 11.8355 6.57897 11.7591 6.49843C11.6826 6.41788 11.5919 6.354 11.4921 6.31042C11.3922 6.26684 11.2852 6.24443 11.1771 6.24447H3.57028V4.27783C3.5693 3.92217 3.65334 3.57199 3.81463 3.25961C3.97593 2.94722 4.20929 2.6827 4.49318 2.49046V2.49046ZM5.15973 9.35447C5.2005 9.28821 5.2538 9.23151 5.31629 9.18793C6.16187 8.60046 7.05577 9.22562 7.05577 10.0708C7.05563 10.2608 7.00916 10.4476 6.92083 10.6133C6.83249 10.7789 6.70525 10.9179 6.55132 11.0168V12.1118H5.44844V11.0168C4.9754 10.7079 4.74371 10.0265 5.15973 9.35447Z" fill="#85D996"/>
<path d="M0 14H12V14C12 15.1046 11.1046 16 10 16H2C0.895431 16 0 15.1046 0 14V14Z" fill="#85D996"/>
</svg>
