<svg width="16" height="16" viewBox="0 0 16 16" fill="none" xmlns="http://www.w3.org/2000/svg">
<path d="M3.45872 12.2855C3.49444 12.2855 3.53015 12.2819 3.56587 12.2766L6.56944 11.7498C6.60515 11.7427 6.63908 11.7266 6.66408 11.6998L14.2337 4.13015C14.2503 4.11363 14.2635 4.094 14.2724 4.0724C14.2813 4.0508 14.286 4.02764 14.286 4.00425C14.286 3.98087 14.2813 3.95771 14.2724 3.93611C14.2635 3.91451 14.2503 3.89488 14.2337 3.87836L11.2659 0.90872C11.2319 0.874791 11.1873 0.856934 11.1391 0.856934C11.0909 0.856934 11.0462 0.874791 11.0123 0.90872L3.44265 8.47836C3.41587 8.50515 3.39979 8.53729 3.39265 8.573L2.86587 11.5766C2.84849 11.6722 2.85469 11.7707 2.88395 11.8634C2.9132 11.9561 2.9646 12.0403 3.03372 12.1087C3.15157 12.223 3.29979 12.2855 3.45872 12.2855ZM4.66229 9.17121L11.1391 2.69621L12.448 4.00515L5.97121 10.4801L4.38372 10.7605L4.66229 9.17121ZM14.5712 13.7855H1.42836C1.11229 13.7855 0.856934 14.0408 0.856934 14.3569V14.9997C0.856934 15.0784 0.921219 15.1427 0.999791 15.1427H14.9997C15.0784 15.1427 15.1427 15.0784 15.1427 14.9997V14.3569C15.1427 14.0408 14.8873 13.7855 14.5712 13.7855Z" fill="#E56F4A"/>
</svg>
