<svg width="1" height="1" viewBox="0 0 1 1" fill="none" xmlns="http://www.w3.org/2000/svg">
<path d="M0.943767 0.882257L0.653924 0.592413C0.698901 0.534266 0.723232 0.463172 0.723232 0.388395C0.723232 0.298886 0.688299 0.214958 0.625129 0.151676C0.561959 0.088395 0.477808 0.0535736 0.38841 0.0535736C0.299013 0.0535736 0.214861 0.0885066 0.151692 0.151676C0.0884103 0.214846 0.0535889 0.298886 0.0535889 0.388395C0.0535889 0.477792 0.0885219 0.561944 0.151692 0.625114C0.214861 0.688395 0.298901 0.723216 0.38841 0.723216C0.463187 0.723216 0.534169 0.698886 0.592317 0.65402L0.88216 0.943752C0.88301 0.944603 0.884019 0.945277 0.88513 0.945737C0.886241 0.946198 0.887431 0.946435 0.888634 0.946435C0.889836 0.946435 0.891026 0.946198 0.892137 0.945737C0.893248 0.945277 0.894257 0.944603 0.895107 0.943752L0.943767 0.895203C0.944618 0.894353 0.945292 0.893344 0.945753 0.892233C0.946213 0.891123 0.94645 0.889932 0.94645 0.88873C0.94645 0.887528 0.946213 0.886337 0.945753 0.885226C0.945292 0.884116 0.944618 0.883107 0.943767 0.882257V0.882257ZM0.565196 0.565181C0.517875 0.612391 0.455151 0.638395 0.38841 0.638395C0.321669 0.638395 0.258946 0.612391 0.211625 0.565181C0.164415 0.517859 0.13841 0.455136 0.13841 0.388395C0.13841 0.321654 0.164415 0.258819 0.211625 0.211609C0.258946 0.1644 0.321669 0.138395 0.38841 0.138395C0.455151 0.138395 0.517986 0.164288 0.565196 0.211609C0.612406 0.258931 0.63841 0.321654 0.63841 0.388395C0.63841 0.455136 0.612406 0.517971 0.565196 0.565181Z" fill="#A3ACB9"/>
</svg>
