<svg width="14" height="14" viewBox="0 0 14 14" fill="none" xmlns="http://www.w3.org/2000/svg">
<rect x="0.25" y="0.25" width="13.5" height="13.5" rx="1.75" stroke="white" stroke-width="0.5"/>
<path d="M5.22328 10.672C5.17528 10.672 5.13261 10.6533 5.09528 10.616C5.06328 10.584 5.04728 10.5467 5.04728 10.504C5.04728 10.4933 5.05528 10.4667 5.07128 10.424L7.77528 3.904C7.83928 3.776 7.93528 3.712 8.06328 3.712H8.78328C8.83128 3.712 8.87128 3.73067 8.90328 3.768C8.93528 3.8 8.95128 3.83733 8.95128 3.88C8.95128 3.90667 8.94595 3.93333 8.93528 3.96L6.21528 10.48C6.16195 10.608 6.06595 10.672 5.92728 10.672H5.22328Z" fill="white"/>
</svg>
