<svg width="11" height="11" viewBox="0 0 11 11" fill="none" xmlns="http://www.w3.org/2000/svg">
<path d="M3.09224 0.953574H2.98808C3.04537 0.953574 3.09224 0.908574 3.09224 0.853574V0.953574H7.05058V0.853574C7.05058 0.908574 7.09745 0.953574 7.15474 0.953574H7.05058V1.85357H7.98808V0.853574C7.98808 0.412324 7.61438 0.0535736 7.15474 0.0535736H2.98808C2.52844 0.0535736 2.15474 0.412324 2.15474 0.853574V1.85357H3.09224V0.953574ZM9.65474 1.85357H0.488078C0.257609 1.85357 0.0714111 2.03232 0.0714111 2.25357V2.65357C0.0714111 2.70857 0.118286 2.75357 0.175578 2.75357H0.962036L1.28365 9.29107C1.30448 9.71732 1.67167 10.0536 2.11568 10.0536H8.02714C8.47245 10.0536 8.83834 9.71857 8.85917 9.29107L9.18079 2.75357H9.96724C10.0245 2.75357 10.0714 2.70857 10.0714 2.65357V2.25357C10.0714 2.03232 9.88521 1.85357 9.65474 1.85357ZM7.92688 9.15357H2.21594L1.90084 2.75357H8.24198L7.92688 9.15357Z" fill="#E56F4A"/>
</svg>
