<svg width="316" height="28" viewBox="0 0 316 28" fill="none" xmlns="http://www.w3.org/2000/svg">
<path d="M0.6875 3.23438C0.6875 3.23438 1.46875 3.17708 3.03125 3.0625C5.375 2.875 7.24479 2.78125 8.64062 2.78125C10.0365 2.78125 11.151 2.83854 11.9844 2.95312C12.8177 3.05729 13.5469 3.24479 14.1719 3.51562C14.8073 3.77604 15.3438 4.13542 15.7812 4.59375C16.2292 5.05208 16.5938 5.63542 16.875 6.34375C17.4062 7.66667 17.6719 9.63542 17.6719 12.25V14.6719C17.6719 17.7656 17.4427 20.1146 16.9844 21.7188C16.4531 23.5729 15.5 24.9062 14.125 25.7188C12.7083 26.5729 10.6302 27 7.89062 27H0.6875V3.23438ZM13.9531 6.89062C13.5781 6.29688 13.0365 5.84896 12.3281 5.54688C11.6198 5.24479 10.5312 5.09375 9.0625 5.09375C7.59375 5.09375 5.6875 5.18229 3.34375 5.35938V24.7656H8.3125C10.25 24.7656 11.6875 24.4479 12.625 23.8125C13.5417 23.1979 14.1562 22.1406 14.4688 20.6406C14.7396 19.4115 14.875 17.4219 14.875 14.6719V12.2344C14.875 9.64062 14.5677 7.85938 13.9531 6.89062ZM23.9062 17.75C23.9062 15.3854 24.026 13.7344 24.2656 12.7969C24.5052 11.8594 24.7969 11.1198 25.1406 10.5781C25.4948 10.026 25.9688 9.56771 26.5625 9.20312C27.75 8.46354 29.5052 8.09375 31.8281 8.09375C35.1823 8.09375 37.3385 8.92188 38.2969 10.5781C38.8698 11.5781 39.1979 12.9896 39.2812 14.8125C39.3125 15.6771 39.3281 16.6302 39.3281 17.6719C39.3281 18.7135 39.2917 19.6875 39.2188 20.5938C39.1562 21.4896 39.026 22.2969 38.8281 23.0156C38.6302 23.7344 38.3542 24.3646 38 24.9062C37.6458 25.4375 37.1771 25.8854 36.5938 26.25C35.4479 26.9583 33.776 27.3125 31.5781 27.3125C28.2865 27.3125 26.125 26.5 25.0938 24.875C24.4583 23.8646 24.0885 22.4479 23.9844 20.625C23.9323 19.75 23.9062 18.7917 23.9062 17.75ZM28.1562 24.2656C28.5312 24.5469 29 24.7604 29.5625 24.9062C30.1354 25.0417 30.9115 25.1094 31.8906 25.1094C32.8802 25.1094 33.7083 24.9688 34.375 24.6875C35.0521 24.4062 35.5573 23.9583 35.8906 23.3438C36.2344 22.7188 36.4479 21.9115 36.5312 20.9219C36.625 19.9323 36.6719 18.7812 36.6719 17.4688C36.6719 16.1562 36.6302 15.0625 36.5469 14.1875C36.474 13.3125 36.2812 12.5885 35.9688 12.0156C35.3438 10.8906 33.9531 10.3281 31.7969 10.3281C29.5156 10.3281 28.0312 10.8906 27.3438 12.0156C27 12.5885 26.7812 13.3177 26.6875 14.2031C26.5938 15.0885 26.5469 16.0521 26.5469 17.0938C26.5469 18.1354 26.5573 19.0208 26.5781 19.75C26.6094 20.4688 26.6771 21.1198 26.7812 21.7031C26.8958 22.276 27.0573 22.776 27.2656 23.2031C27.4844 23.6302 27.7812 23.9844 28.1562 24.2656ZM58.6875 26.1719C57.2396 26.9323 55.2552 27.3125 52.7344 27.3125C51.2448 27.3125 50.151 27.1979 49.4531 26.9688C47.6719 26.3646 46.5052 25.3385 45.9531 23.8906C45.5677 22.8802 45.3438 21.7917 45.2812 20.625C45.2188 19.4583 45.1875 18.474 45.1875 17.6719C45.1875 16.8698 45.2083 16.0885 45.25 15.3281C45.2917 14.5573 45.3906 13.8177 45.5469 13.1094C45.7135 12.401 45.9635 11.7448 46.2969 11.1406C46.6302 10.526 47.0833 9.98958 47.6562 9.53125C48.8958 8.57292 50.6771 8.09375 53 8.09375C54.7083 8.09375 56.2812 8.34375 57.7188 8.84375C58.1042 8.96875 58.3958 9.08854 58.5938 9.20312L57.8125 11.5156C55.8125 10.7448 54.1719 10.3594 52.8906 10.3594C51.6198 10.3594 50.6823 10.5052 50.0781 10.7969C49.4844 11.0885 49.0208 11.5312 48.6875 12.125C48.125 13.1458 47.8438 15.0208 47.8438 17.75C47.8438 18.8438 47.8802 19.8438 47.9531 20.75C48.026 21.6458 48.2083 22.4167 48.5 23.0625C49.1146 24.3958 50.3802 25.0625 52.2969 25.0625C54.224 25.0625 56.0938 24.7292 57.9062 24.0625L58.6875 26.1719ZM78.5156 18.8125C78.5156 22.25 78.6146 24.9375 78.8125 26.875L76.4844 27.0625L76.1094 24.8594C74.8906 25.8698 73.4688 26.599 71.8438 27.0469C71.1979 27.224 70.4271 27.3125 69.5312 27.3125C68.6458 27.3125 67.849 27.2083 67.1406 27C66.4427 26.7812 65.8854 26.4375 65.4688 25.9688C64.7083 25.125 64.3281 23.5885 64.3281 21.3594V8.40625H66.9531V20.9375C66.9531 22.4375 67.099 23.4062 67.3906 23.8438C67.6823 24.2708 68.026 24.5625 68.4219 24.7188C68.8281 24.8646 69.3073 24.9375 69.8594 24.9375C70.4115 24.9375 70.9427 24.8958 71.4531 24.8125C71.974 24.7188 72.4948 24.5885 73.0156 24.4219C74.1094 24.0677 75.099 23.5833 75.9844 22.9688V22.9531C75.9427 22.1615 75.9219 20.6198 75.9219 18.3281V8.40625H78.5156V18.8125ZM93.9531 10.5312C92.2552 10.5312 90.401 11.1302 88.3906 12.3281V27H85.7969V8.40625H88.0781L88.3281 10.3281C90.151 8.83854 92.1927 8.09375 94.4531 8.09375C95.7448 8.09375 96.7604 8.28125 97.5 8.65625C98.25 9.02083 98.7917 9.625 99.125 10.4688C101.427 8.88542 103.615 8.09375 105.688 8.09375C107.646 8.09375 109.005 8.54167 109.766 9.4375C110.495 10.3021 110.859 11.8385 110.859 14.0469V27H108.234V14.5312C108.234 13.0312 108.089 12.0677 107.797 11.6406C107.505 11.2031 107.156 10.9115 106.75 10.7656C106.354 10.6094 105.885 10.5312 105.344 10.5312C104.812 10.5312 104.307 10.5833 103.828 10.6875C103.359 10.7812 102.88 10.9115 102.391 11.0781C101.401 11.4219 100.453 11.8594 99.5469 12.3906C99.599 13.0156 99.625 13.5677 99.625 14.0469V27H97V14.5312C97 13.0312 96.8542 12.0677 96.5625 11.6406C96.2708 11.2031 95.9219 10.9115 95.5156 10.7656C95.1198 10.6094 94.599 10.5312 93.9531 10.5312ZM132.328 26.0156C130.172 26.8802 127.792 27.3125 125.188 27.3125C123.677 27.3125 122.396 27.1562 121.344 26.8438C119.667 26.3646 118.552 25.375 118 23.875C117.49 22.4688 117.234 20.3854 117.234 17.625V16.8281C117.234 13.526 117.922 11.2083 119.297 9.875C120.536 8.6875 122.604 8.09375 125.5 8.09375C128.323 8.09375 130.25 8.79167 131.281 10.1875C131.781 10.8646 132.109 11.6875 132.266 12.6562C132.432 13.6146 132.516 14.5312 132.516 15.4062C132.516 16.7708 132.484 17.8281 132.422 18.5781C130.953 18.6406 129.635 18.6719 128.469 18.6719C128.469 18.6719 127.63 18.6719 125.953 18.6719C123.328 18.6719 121.307 18.5573 119.891 18.3281C119.891 20.724 120.193 22.3958 120.797 23.3438C121.536 24.5 123.01 25.0781 125.219 25.0781C127.427 25.0781 129.542 24.6458 131.562 23.7812L132.328 26.0156ZM129.875 16.5V15C129.875 13.3646 129.557 12.1979 128.922 11.5C128.214 10.7188 126.99 10.3281 125.25 10.3281C123.167 10.3281 121.745 10.7812 120.984 11.6875C120.255 12.5521 119.891 14.1562 119.891 16.5H129.875ZM147.875 10.5312C145.844 10.5312 143.776 11.1302 141.672 12.3281V27H139.078V8.40625H141.359L141.609 10.3281C142.745 9.40104 144.156 8.73958 145.844 8.34375C146.531 8.17708 147.339 8.09375 148.266 8.09375C149.193 8.09375 150.01 8.20312 150.719 8.42188C151.427 8.63021 151.99 8.96875 152.406 9.4375C153.167 10.2812 153.547 11.8177 153.547 14.0469V27H150.922V14.5312C150.922 13.0312 150.776 12.0677 150.484 11.6406C150.193 11.2031 149.844 10.9115 149.438 10.7656C149.042 10.6094 148.521 10.5312 147.875 10.5312ZM169.547 26.1094C167.849 26.9115 166.281 27.3125 164.844 27.3125C162.24 27.3125 160.76 26.1979 160.406 23.9688C160.323 23.4375 160.281 22.6667 160.281 21.6562V10.5781H158.031V8.65625L160.281 8.40625L160.688 4.15625H162.859V8.40625H168.281V10.5781H162.859V21.6094C162.859 22.8906 162.953 23.7083 163.141 24.0625C163.484 24.7083 164.172 25.0312 165.203 25.0312C166.234 25.0312 167.385 24.7135 168.656 24.0781L169.547 26.1094ZM187.969 20.4062C187.969 22.4792 188.068 24.6354 188.266 26.875L185.953 27.0625L185.562 24.8906C184.24 25.9531 182.49 26.6927 180.312 27.1094C179.604 27.2448 178.974 27.3125 178.422 27.3125C177.87 27.3125 177.38 27.2865 176.953 27.2344C176.536 27.1823 176.13 27.0833 175.734 26.9375C175.349 26.7812 174.99 26.5677 174.656 26.2969C174.323 26.026 174.031 25.6667 173.781 25.2188C173.25 24.2708 172.984 23.1354 172.984 21.8125C172.984 20.4792 173.078 19.4479 173.266 18.7188C173.464 17.9792 173.786 17.3646 174.234 16.875C175.12 15.9062 176.609 15.4219 178.703 15.4219C180.797 15.4219 183.031 15.8177 185.406 16.6094V14.5781C185.406 12.3177 184.474 10.9792 182.609 10.5625C182.005 10.4271 181.312 10.3594 180.531 10.3594C178.75 10.3594 176.901 10.7135 174.984 11.4219L174.406 9.17188C174.938 8.81771 176.292 8.5 178.469 8.21875C179.156 8.13542 179.979 8.09375 180.938 8.09375C181.906 8.09375 182.854 8.20833 183.781 8.4375C184.708 8.66667 185.479 9.04167 186.094 9.5625C187.344 10.5938 187.969 12.2656 187.969 14.5781V20.4062ZM185.344 18.5625C182.906 17.9479 180.656 17.6406 178.594 17.6406C177.323 17.6406 176.479 18.0052 176.062 18.7344C175.781 19.2448 175.641 20 175.641 21C175.641 22 175.693 22.724 175.797 23.1719C175.911 23.6198 176.094 23.9896 176.344 24.2812C176.833 24.8333 177.641 25.1094 178.766 25.1094C180.526 25.1094 182.271 24.6562 184 23.75C184.531 23.4792 185.01 23.1771 185.438 22.8438C185.375 21.7188 185.344 20.2917 185.344 18.5625ZM204.203 26.1094C202.505 26.9115 200.938 27.3125 199.5 27.3125C196.896 27.3125 195.417 26.1979 195.062 23.9688C194.979 23.4375 194.938 22.6667 194.938 21.6562V10.5781H192.688V8.65625L194.938 8.40625L195.344 4.15625H197.516V8.40625H202.938V10.5781H197.516V21.6094C197.516 22.8906 197.609 23.7083 197.797 24.0625C198.141 24.7083 198.828 25.0312 199.859 25.0312C200.891 25.0312 202.042 24.7135 203.312 24.0781L204.203 26.1094ZM210.25 3.95312C209.552 3.95312 209.104 3.85417 208.906 3.65625C208.594 3.33333 208.438 2.89062 208.438 2.32812C208.438 1.75521 208.469 1.34896 208.531 1.10938C208.604 0.859375 208.708 0.666667 208.844 0.53125C209.094 0.28125 209.474 0.15625 209.984 0.15625C210.505 0.15625 210.875 0.182292 211.094 0.234375C211.323 0.286458 211.51 0.385417 211.656 0.53125C211.906 0.78125 212.031 1.19271 212.031 1.76562C212.031 2.32812 212 2.73438 211.938 2.98438C211.885 3.22396 211.792 3.41667 211.656 3.5625C211.396 3.82292 210.927 3.95312 210.25 3.95312ZM208.984 8.40625H211.547V27H209.016L208.984 8.40625ZM218.531 17.75C218.531 15.3854 218.651 13.7344 218.891 12.7969C219.13 11.8594 219.422 11.1198 219.766 10.5781C220.12 10.026 220.594 9.56771 221.188 9.20312C222.375 8.46354 224.13 8.09375 226.453 8.09375C229.807 8.09375 231.964 8.92188 232.922 10.5781C233.495 11.5781 233.823 12.9896 233.906 14.8125C233.938 15.6771 233.953 16.6302 233.953 17.6719C233.953 18.7135 233.917 19.6875 233.844 20.5938C233.781 21.4896 233.651 22.2969 233.453 23.0156C233.255 23.7344 232.979 24.3646 232.625 24.9062C232.271 25.4375 231.802 25.8854 231.219 26.25C230.073 26.9583 228.401 27.3125 226.203 27.3125C222.911 27.3125 220.75 26.5 219.719 24.875C219.083 23.8646 218.714 22.4479 218.609 20.625C218.557 19.75 218.531 18.7917 218.531 17.75ZM222.781 24.2656C223.156 24.5469 223.625 24.7604 224.188 24.9062C224.76 25.0417 225.536 25.1094 226.516 25.1094C227.505 25.1094 228.333 24.9688 229 24.6875C229.677 24.4062 230.182 23.9583 230.516 23.3438C230.859 22.7188 231.073 21.9115 231.156 20.9219C231.25 19.9323 231.297 18.7812 231.297 17.4688C231.297 16.1562 231.255 15.0625 231.172 14.1875C231.099 13.3125 230.906 12.5885 230.594 12.0156C229.969 10.8906 228.578 10.3281 226.422 10.3281C224.141 10.3281 222.656 10.8906 221.969 12.0156C221.625 12.5885 221.406 13.3177 221.312 14.2031C221.219 15.0885 221.172 16.0521 221.172 17.0938C221.172 18.1354 221.182 19.0208 221.203 19.75C221.234 20.4688 221.302 21.1198 221.406 21.7031C221.521 22.276 221.682 22.776 221.891 23.2031C222.109 23.6302 222.406 23.9844 222.781 24.2656ZM249.188 10.5312C247.156 10.5312 245.089 11.1302 242.984 12.3281V27H240.391V8.40625H242.672L242.922 10.3281C244.057 9.40104 245.469 8.73958 247.156 8.34375C247.844 8.17708 248.651 8.09375 249.578 8.09375C250.505 8.09375 251.323 8.20312 252.031 8.42188C252.74 8.63021 253.302 8.96875 253.719 9.4375C254.479 10.2812 254.859 11.8177 254.859 14.0469V27H252.234V14.5312C252.234 13.0312 252.089 12.0677 251.797 11.6406C251.505 11.2031 251.156 10.9115 250.75 10.7656C250.354 10.6094 249.833 10.5312 249.188 10.5312ZM274.812 3.09375H278.453L286.812 27H283.984L281.609 19.9844H271.984L269.734 27H266.984L274.812 3.09375ZM280.859 17.75L276.641 5.20312L276.156 6.98438L272.703 17.75H280.859ZM300.547 19.5C300.12 19.5208 299.37 19.5312 298.297 19.5312C297.234 19.5312 295.76 19.3906 293.875 19.1094V27H291.219V3.1875C294.25 2.90625 297.266 2.76562 300.266 2.76562C302.786 2.76562 304.552 3.33333 305.562 4.46875C306.417 5.42708 306.844 7.01042 306.844 9.21875V11.0625C306.844 12.7708 306.656 14.2292 306.281 15.4375C305.479 17.9583 303.568 19.3125 300.547 19.5ZM300.375 5.01562C297.521 5.01562 295.354 5.07292 293.875 5.1875V16.9062C295.698 17.1458 297.318 17.2656 298.734 17.2656C300.161 17.2656 301.182 17.1667 301.797 16.9688C302.422 16.7604 302.906 16.4167 303.25 15.9375C303.833 15.125 304.125 13.5104 304.125 11.0938V9.15625C304.125 7.66667 303.833 6.60417 303.25 5.96875C302.688 5.33333 301.729 5.01562 300.375 5.01562ZM312.859 3.09375H315.5V27H312.859V3.09375Z" fill="#49D8FF"/>
</svg>
