<svg width="24" height="24" viewBox="0 0 24 24" fill="none" xmlns="http://www.w3.org/2000/svg">
<rect x="1" y="1" width="22" height="22" rx="11" stroke="#FF4D4F" stroke-width="2"/>
<path d="M12.8244 12L16.9699 7.20092C17.0394 7.12117 16.9809 7 16.8735 7H15.6133C15.5391 7 15.468 7.03221 15.4191 7.08742L12 11.046L8.58095 7.08742C8.53357 7.03221 8.4625 7 8.3867 7H7.12647C7.01908 7 6.96065 7.12117 7.03013 7.20092L11.1756 12L7.03013 16.7991C7.01457 16.8169 7.00458 16.8386 7.00136 16.8617C6.99814 16.8848 7.00182 16.9084 7.01196 16.9295C7.0221 16.9507 7.03828 16.9686 7.05858 16.9811C7.07888 16.9936 7.10244 17.0001 7.12647 17H8.3867C8.46092 17 8.53199 16.9678 8.58095 16.9126L12 12.954L15.4191 16.9126C15.4664 16.9678 15.5375 17 15.6133 17H16.8735C16.9809 17 17.0394 16.8788 16.9699 16.7991L12.8244 12Z" fill="#FF4D4F"/>
</svg>
