<svg width="24" height="24" viewBox="0 0 24 24" fill="none" xmlns="http://www.w3.org/2000/svg">
<rect x="1" y="1" width="22" height="22" rx="11" stroke="#1890FF" stroke-width="2"/>
<path d="M11 7.07865C11 7.36473 11.1136 7.63909 11.3159 7.84137C11.5182 8.04366 11.7926 8.1573 12.0787 8.1573C12.3647 8.1573 12.6391 8.04366 12.8414 7.84137C13.0437 7.63909 13.1573 7.36473 13.1573 7.07865C13.1573 6.79258 13.0437 6.51822 12.8414 6.31593C12.6391 6.11364 12.3647 6 12.0787 6C11.7926 6 11.5182 6.11364 11.3159 6.31593C11.1136 6.51822 11 6.79258 11 7.07865V7.07865ZM12.618 9.91011H11.5393C11.4652 9.91011 11.4045 9.97079 11.4045 10.0449V17.8652C11.4045 17.9393 11.4652 18 11.5393 18H12.618C12.6921 18 12.7528 17.9393 12.7528 17.8652V10.0449C12.7528 9.97079 12.6921 9.91011 12.618 9.91011Z" fill="#1890FF"/>
</svg>
