<svg width="24" height="24" viewBox="0 0 24 24" fill="none" xmlns="http://www.w3.org/2000/svg">
<rect x="1" y="1" width="22" height="22" rx="11" stroke="#FBC24F" stroke-width="2"/>
<path d="M10.5 16.4C10.5 16.8243 10.658 17.2313 10.9393 17.5314C11.2206 17.8314 11.6022 18 12 18C12.3978 18 12.7794 17.8314 13.0607 17.5314C13.342 17.2313 13.5 16.8243 13.5 16.4C13.5 15.9757 13.342 15.5687 13.0607 15.2686C12.7794 14.9686 12.3978 14.8 12 14.8C11.6022 14.8 11.2206 14.9686 10.9393 15.2686C10.658 15.5687 10.5 15.9757 10.5 16.4ZM11 6.26667V12.4C11 12.5467 11.1125 12.6667 11.25 12.6667H12.75C12.8875 12.6667 13 12.5467 13 12.4V6.26667C13 6.12 12.8875 6 12.75 6H11.25C11.1125 6 11 6.12 11 6.26667Z" fill="#FBB11F"/>
</svg>
